<svg width="27" height="27" viewBox="0 0 27 27" fill="none" xmlns="http://www.w3.org/2000/svg">
<path d="M4.47056 0.593994C2.48695 0.593994 0.878906 2.20203 0.878906 4.18564V20.5113C0.878906 22.495 2.48695 24.103 4.47056 24.103H12.6619C12.2746 23.498 11.9618 22.8407 11.7368 22.1439H4.47056C3.56891 22.1439 2.83799 21.413 2.83799 20.5113V4.18564C2.83799 3.284 3.56891 2.55308 4.47056 2.55308H20.7962C21.6979 2.55308 22.4288 3.284 22.4288 4.18564V11.4519C23.1256 11.6769 23.7829 11.9897 24.3879 12.377V4.18564C24.3879 2.20203 22.7799 0.593994 20.7962 0.593994H4.47056Z" fill="#007EFF"/>
<path d="M20.4131 11.0631C20.4535 10.9558 20.4756 10.8397 20.4756 10.7182C20.4756 10.1772 20.037 9.73865 19.496 9.73865H12.96C12.419 9.73865 11.9805 10.1772 11.9805 10.7182C11.9805 11.2592 12.419 11.6977 12.96 11.6977H16.5406C17.5487 11.2756 18.6555 11.0425 19.8168 11.0425C20.0173 11.0425 20.2161 11.0494 20.4131 11.0631Z" fill="#007EFF"/>
<path d="M7.7355 7.77954C6.11254 7.77954 4.79688 9.09521 4.79688 10.7182C4.79688 12.3411 6.11254 13.6568 7.7355 13.6568C9.35845 13.6568 10.6741 12.3411 10.6741 10.7182C10.6741 9.09521 9.35845 7.77954 7.7355 7.77954ZM6.75596 10.7182C6.75596 10.1772 7.19452 9.73861 7.7355 9.73861C8.27648 9.73861 8.71504 10.1772 8.71504 10.7182C8.71504 11.2591 8.27648 11.6977 7.7355 11.6977C7.19452 11.6977 6.75596 11.2591 6.75596 10.7182Z" fill="#007EFF"/>
<path d="M4.79688 17.8992C4.79688 16.2763 6.11254 14.9606 7.7355 14.9606C9.35845 14.9606 10.6741 16.2763 10.6741 17.8992C10.6741 19.5221 9.35845 20.8378 7.7355 20.8378C6.11254 20.8378 4.79688 19.5221 4.79688 17.8992ZM7.7355 16.9197C7.19452 16.9197 6.75596 17.3582 6.75596 17.8992C6.75596 18.4402 7.19452 18.8787 7.7355 18.8787C8.27648 18.8787 8.71504 18.4402 8.71504 17.8992C8.71504 17.3582 8.27648 16.9197 7.7355 16.9197Z" fill="#007EFF"/>
<path d="M19.4952 6.47129L5.78228 6.47132C5.24129 6.47132 4.80273 6.03277 4.80273 5.49177C4.80273 4.95079 5.24129 4.51223 5.78228 4.51223L19.4952 4.51221C20.0362 4.51221 20.4748 4.95075 20.4748 5.49175C20.4748 6.03273 20.0362 6.47129 19.4952 6.47129Z" fill="#007EFF"/>
<path d="M26.9994 19.5318C26.9994 15.5645 23.7834 12.3485 19.8161 12.3485C15.8488 12.3485 12.6328 15.5645 12.6328 19.5318C12.6328 23.4991 15.8488 26.7151 19.8161 26.7151C23.7834 26.7151 26.9994 23.4991 26.9994 19.5318ZM20.4706 23.4545C20.4706 23.8153 20.1783 24.1076 19.8176 24.1076C19.4569 24.1076 19.1645 23.8153 19.1645 23.4545L19.1639 20.1848H15.8929C15.5323 20.1848 15.2398 19.8925 15.2398 19.5318C15.2398 19.1712 15.5323 18.8788 15.8929 18.8788H19.1637L19.1631 15.6127C19.1631 15.252 19.4555 14.9597 19.8161 14.9597C20.1767 14.9597 20.4691 15.252 20.4691 15.6127L20.4698 18.8788H23.7382C24.0989 18.8788 24.3912 19.1712 24.3912 19.5318C24.3912 19.8925 24.0989 20.1848 23.7382 20.1848H20.4699L20.4706 23.4545Z" fill="#007EFF"/>
</svg>
