<svg width="26" height="26" viewBox="0 0 26 26" fill="none" xmlns="http://www.w3.org/2000/svg">
<path d="M25.7279 16.0578L22.9422 13.2721C22.856 13.1858 22.7537 13.1174 22.641 13.0707C22.5284 13.024 22.4077 13 22.2857 13C22.1638 13 22.043 13.024 21.9304 13.0707C21.8177 13.1174 21.7154 13.1858 21.6292 13.2721L13 21.9012V26H17.0988L25.7279 17.3708C25.8142 17.2846 25.8826 17.1823 25.9293 17.0696C25.976 16.957 26 16.8363 26 16.7143C26 16.5924 25.976 16.4716 25.9293 16.359C25.8826 16.2463 25.8142 16.144 25.7279 16.0578ZM16.3298 24.1429H14.8571V22.6703L19.5 18.0274L20.9726 19.5L16.3298 24.1429ZM22.2857 18.1869L20.8131 16.7143L22.2857 15.2417L23.7583 16.7143L22.2857 18.1869Z" fill="#007EFF"/>
<path d="M14.858 13H5.57227V14.8571H14.858V13Z" fill="#007EFF"/>
<path d="M16.7151 7.42859H5.57227V9.28573H16.7151V7.42859Z" fill="#007EFF"/>
<path d="M22.2857 1.85714C22.2852 1.36477 22.0893 0.892728 21.7412 0.544569C21.393 0.196409 20.921 0.000565253 20.4286 0H1.85715C1.36478 0.000565253 0.892734 0.196409 0.544575 0.544569C0.196415 0.892728 0.000571266 1.36477 6.0132e-06 1.85714V13.9286C-0.00200483 15.7805 0.500349 17.598 1.45315 19.186C2.40594 20.774 3.77321 22.0725 5.40819 22.9422L10.2143 25.5049V23.4L6.28235 21.3037C4.9446 20.592 3.82589 19.5295 3.04628 18.2302C2.26667 16.9309 1.85559 15.4438 1.85715 13.9286V1.85714H20.4286V10.2143H22.2857V1.85714Z" fill="#007EFF"/>
</svg>
