<svg width="26" height="26" viewBox="0 0 26 26" fill="none" xmlns="http://www.w3.org/2000/svg">
<path fill-rule="evenodd" clip-rule="evenodd" d="M3.25 2.6C2.89101 2.6 2.6 2.89101 2.6 3.25V22.75C2.6 23.109 2.89101 23.4 3.25 23.4H22.75C23.109 23.4 23.4 23.109 23.4 22.75V3.25C23.4 2.89101 23.109 2.6 22.75 2.6H3.25ZM0 3.25C0 1.45507 1.45507 0 3.25 0H22.75C24.5449 0 26 1.45507 26 3.25V22.75C26 24.5449 24.5449 26 22.75 26H3.25C1.45507 26 0 24.5449 0 22.75V3.25Z" fill="#007EFF"/>
<path fill-rule="evenodd" clip-rule="evenodd" d="M0 6.49995C0 5.78198 0.58203 5.19995 1.3 5.19995H23.4C24.118 5.19995 24.7 5.78198 24.7 6.49995C24.7 7.21792 24.118 7.79995 23.4 7.79995H1.3C0.58203 7.79995 0 7.21792 0 6.49995Z" fill="#007EFF"/>
<path fill-rule="evenodd" clip-rule="evenodd" d="M15.6016 11.6999C15.6016 10.9819 16.1836 10.3999 16.9016 10.3999H24.7016C25.4195 10.3999 26.0016 10.9819 26.0016 11.6999C26.0016 12.4179 25.4195 12.9999 24.7016 12.9999H16.9016C16.1836 12.9999 15.6016 12.4179 15.6016 11.6999Z" fill="#007EFF"/>
<path fill-rule="evenodd" clip-rule="evenodd" d="M15.6016 16.9001C15.6016 16.1821 16.1836 15.6001 16.9016 15.6001H24.7016C25.4195 15.6001 26.0016 16.1821 26.0016 16.9001C26.0016 17.6181 25.4195 18.2001 24.7016 18.2001H16.9016C16.1836 18.2001 15.6016 17.6181 15.6016 16.9001Z" fill="#007EFF"/>
<path fill-rule="evenodd" clip-rule="evenodd" d="M11.0508 11.6999C11.0508 10.9819 11.6328 10.3999 12.3508 10.3999H13.0008C13.7188 10.3999 14.3008 10.9819 14.3008 11.6999C14.3008 12.4179 13.7188 12.9999 13.0008 12.9999H12.3508C11.6328 12.9999 11.0508 12.4179 11.0508 11.6999Z" fill="#007EFF"/>
<path fill-rule="evenodd" clip-rule="evenodd" d="M11.0508 16.9001C11.0508 16.1821 11.6328 15.6001 12.3508 15.6001H13.0008C13.7188 15.6001 14.3008 16.1821 14.3008 16.9001C14.3008 17.6181 13.7188 18.2001 13.0008 18.2001H12.3508C11.6328 18.2001 11.0508 17.6181 11.0508 16.9001Z" fill="#007EFF"/>
<path fill-rule="evenodd" clip-rule="evenodd" d="M6.49922 0C7.21719 0 7.79922 0.58203 7.79922 1.3V24.7C7.79922 25.418 7.21719 26 6.49922 26C5.78125 26 5.19922 25.418 5.19922 24.7V1.3C5.19922 0.58203 5.78125 0 6.49922 0Z" fill="#007EFF"/>
</svg>
