<svg width="45" height="16" viewBox="0 0 45 16" fill="none" xmlns="http://www.w3.org/2000/svg">
<path d="M0.000518136 5.53187C0.0601038 5.39197 0.037824 5.24171 0.0528499 5.09715C0.196374 3.68057 0.658552 2.37487 1.41348 1.17072C1.64664 0.798695 1.87876 0.425636 2.14198 0.0722674C2.2197 -0.0323962 2.25493 -0.0194428 2.30985 0.0857389C2.70415 0.838591 3.05597 1.61165 3.39276 2.39093C3.86582 3.48575 4.32748 4.58524 4.60209 5.75156C4.69743 6.15622 4.76582 6.56504 4.79535 6.98006C4.7995 7.03602 4.81038 7.09198 4.81867 7.15312C4.88758 7.12359 4.90831 7.06711 4.93991 7.02151C6.12955 5.30441 7.66065 3.9785 9.53319 3.05466C11.1223 2.27072 12.8032 1.75621 14.5399 1.41683C14.6425 1.39662 14.7482 1.3873 14.8529 1.3816C14.9218 1.37797 15.0244 1.35465 15.0467 1.42875C15.071 1.5101 14.9659 1.53445 14.9063 1.56139C14.6539 1.67486 14.3985 1.78212 14.1431 1.88937C13.3285 2.23082 12.5068 2.5588 11.7389 2.99974C10.2575 3.85052 8.95754 4.92151 7.86894 6.2412C6.79432 7.54379 5.77152 8.88266 5.01038 10.4003C4.84147 10.7371 4.68084 11.0785 4.50779 11.4132C4.44613 11.5319 4.49639 11.5604 4.59898 11.5806C4.95857 11.6511 5.31971 11.6537 5.68396 11.6314C7.32282 11.5298 8.63578 10.7345 9.80107 9.66297C11.5835 8.02411 12.9633 6.08058 14.0493 3.92409C14.2493 3.52668 14.3798 3.10181 14.5234 2.68212C14.528 2.66865 14.5291 2.65362 14.5353 2.64067C14.5731 2.56191 14.584 2.4101 14.6596 2.42357C14.7622 2.44171 14.7425 2.5873 14.7493 2.68212C14.8021 3.41891 14.6679 4.13808 14.5234 4.85415C14.184 6.53498 13.4394 8.01323 12.2772 9.278C11.3715 10.263 10.3373 11.0904 9.18604 11.7713C8.05132 12.4423 6.82075 12.721 5.50779 12.6702C5.06271 12.6531 4.62074 12.6158 4.18913 12.5003C4.07514 12.4697 4.02851 12.5081 3.98861 12.6081C3.78758 13.1091 3.63317 13.6246 3.4969 14.1464C3.41504 14.4609 3.30312 14.7656 3.1627 15.0583C3.06789 15.2557 2.94146 15.4267 2.72695 15.5112H2.64094C2.27514 15.3656 2.10622 15.0734 2.03317 14.7055C1.94508 14.2604 1.9513 13.8138 1.99742 13.3656C2.05648 12.7936 2.20985 12.2423 2.37255 11.6935C2.39379 11.621 2.38913 11.5718 2.33265 11.5158C1.9513 11.1366 1.63368 10.7065 1.34301 10.2557C0.701039 9.2609 0.256996 8.18991 0.0782386 7.01374C0.0497411 6.82618 0.056995 6.63395 0 6.45053V5.53291L0.000518136 5.53187ZM2.22281 0.495067C2.21141 0.493512 2.19949 0.491958 2.18809 0.490403C2.03524 0.839109 1.88135 1.1873 1.73006 1.53704C1.26114 2.62202 0.869951 3.72772 0.731609 4.9127C0.597929 6.05467 0.705702 7.15364 1.15389 8.22255C1.52021 9.09717 2.04871 9.85002 2.72592 10.507C2.79794 10.577 2.83939 10.5889 2.8912 10.4868C2.9627 10.3464 3.03006 10.2044 3.08084 10.0552C3.25182 9.55157 3.28758 9.02774 3.30934 8.50286C3.34975 7.53499 3.39638 6.56503 3.26996 5.60026C3.08861 4.21425 2.857 2.83652 2.49742 1.48367C2.40933 1.1531 2.31452 0.824083 2.22332 0.494549L2.22281 0.495067Z" fill="#A6320C"/>
<path d="M18.4789 4.16437C18.44 4.23121 18.4545 4.2882 18.4545 4.34209C18.4535 5.43121 18.4514 6.52085 18.4566 7.60998C18.4571 7.73329 18.4307 7.77267 18.3006 7.76956C17.9136 7.76024 17.526 7.76334 17.1385 7.76801C17.0379 7.76956 16.998 7.75195 16.998 7.63692C17.0022 5.82137 17.0017 4.00582 16.998 2.19079C16.998 2.08612 17.0322 2.06592 17.1286 2.06643C17.7027 2.07058 18.2768 2.06902 18.8504 2.06799C18.9157 2.06799 18.9659 2.06799 18.9892 2.14985C19.3115 3.27214 19.6369 4.3939 19.9633 5.51515C19.9799 5.57266 19.9618 5.64106 20.0203 5.69494C20.1825 4.94157 20.4348 4.21981 20.6447 3.48561C20.769 3.05038 20.9027 2.61773 21.0266 2.1825C21.0519 2.09338 21.0934 2.0654 21.1861 2.06643C21.7551 2.0711 22.3245 2.07213 22.8939 2.06643C23.0058 2.0654 23.0286 2.1027 23.0281 2.20529C23.0255 4.011 23.0255 5.81722 23.0281 7.62293C23.0281 7.73174 23.0022 7.77163 22.8851 7.76904C22.5074 7.76179 22.1292 7.75972 21.7514 7.76956C21.6105 7.77319 21.5659 7.74158 21.567 7.59081C21.5742 6.52552 21.5711 5.46023 21.5701 4.39442C21.5701 4.33846 21.5825 4.27991 21.5431 4.19908C21.4665 4.55919 21.3665 4.88821 21.2701 5.21826C21.0348 6.02344 20.8017 6.82966 20.5737 7.63692C20.5447 7.73899 20.4996 7.77112 20.396 7.76853C20.1281 7.76127 19.8602 7.7649 19.5924 7.76697C19.5271 7.76749 19.4887 7.75298 19.4685 7.68251C19.1571 6.59184 18.8431 5.50168 18.5307 4.411C18.5089 4.33484 18.4975 4.25556 18.4784 4.16385L18.4789 4.16437Z" fill="#A6320C"/>
<path d="M25.5963 9.0283C27.0482 9.0283 28.2725 9.97079 28.5927 11.3107C28.9865 12.9604 27.9456 14.5915 26.2808 14.9319C24.7274 15.2496 23.1797 14.377 22.7129 12.9211C22.173 11.2376 23.2181 9.46768 24.9725 9.09255C25.1886 9.04644 25.4062 9.02208 25.5969 9.0283H25.5963ZM24.1305 12.0335C24.1233 12.2625 24.1627 12.5024 24.2549 12.7304C24.4849 13.2967 24.8912 13.6428 25.515 13.6843C26.1544 13.7262 26.6331 13.4465 26.9181 12.8827C27.2145 12.2967 27.2077 11.6915 26.8953 11.1091C26.6279 10.6107 26.1969 10.3361 25.6295 10.3319C25.0803 10.3283 24.658 10.5858 24.3761 11.0578C24.201 11.3511 24.1233 11.6739 24.1305 12.033V12.0335Z" fill="#A6320C"/>
<path d="M33.7892 14.8497C33.2089 14.8497 32.6591 14.8482 32.1094 14.8513C32.026 14.8513 32.0084 14.7917 31.9783 14.7404C31.5985 14.0943 31.2192 13.4476 30.84 12.801C30.8141 12.757 30.7866 12.7134 30.754 12.6606C30.7047 12.7134 30.7213 12.7668 30.7213 12.814C30.7198 13.4445 30.7182 14.0756 30.7224 14.7062C30.7229 14.815 30.697 14.8549 30.5799 14.8528C30.2021 14.8456 29.8239 14.8435 29.4462 14.8533C29.3052 14.857 29.2612 14.8254 29.2617 14.6746C29.2679 13.002 29.2654 11.33 29.2654 9.65747C29.2654 9.52379 29.2685 9.3896 29.2643 9.25592C29.2617 9.17664 29.2881 9.14659 29.371 9.14815C30.2125 9.16265 31.055 9.11395 31.8954 9.18131C33.0804 9.27664 33.5825 10.1627 33.5094 11.0979C33.4509 11.8471 33.0768 12.3321 32.3431 12.5259C32.2249 12.557 32.2737 12.6067 32.3135 12.6653C32.7534 13.3134 33.1928 13.9616 33.6322 14.6103C33.6799 14.6808 33.7255 14.7523 33.7897 14.8497H33.7892ZM30.7208 11.0963C30.7208 11.3114 30.7208 11.5264 30.7208 11.7414C30.7208 11.7958 30.7192 11.8482 30.799 11.8482C31.0524 11.8482 31.3063 11.8606 31.5524 11.7798C31.7918 11.7005 31.942 11.5393 31.9778 11.2891C31.998 11.1476 31.9944 11.0046 31.9623 10.8621C31.9063 10.6134 31.7555 10.4642 31.5125 10.3937C31.2773 10.3259 31.0379 10.3533 30.8001 10.3461C30.7203 10.344 30.7213 10.3974 30.7213 10.4518C30.7213 10.6668 30.7213 10.8818 30.7213 11.0969L30.7208 11.0963Z" fill="#A6320C"/>
<path d="M32.7373 7.76594C32.4901 7.76594 32.272 7.76594 32.0534 7.76594C31.7425 7.76594 31.4316 7.76179 31.1207 7.76853C31.0207 7.7706 30.9694 7.73537 30.9207 7.65091C30.5502 7.01101 30.1741 6.3737 29.8 5.73588C29.771 5.68665 29.7409 5.63847 29.7046 5.57888C29.6647 5.6338 29.6793 5.68614 29.6793 5.7338C29.6782 6.36438 29.6756 6.99495 29.6808 7.625C29.6818 7.73692 29.6528 7.7706 29.5388 7.76853C29.1419 7.76179 28.7451 7.76231 28.3482 7.76853C28.2461 7.77008 28.2207 7.73692 28.2207 7.63847C28.2233 5.82344 28.2233 4.00841 28.2207 2.19338C28.2207 2.09182 28.2508 2.0654 28.3497 2.06644C29.0575 2.07265 29.7653 2.06903 30.4725 2.07732C30.7202 2.08043 30.9684 2.1027 31.2109 2.16281C31.9378 2.34312 32.4233 2.93483 32.4627 3.68768C32.4756 3.93691 32.4627 4.18406 32.3927 4.42499C32.2383 4.95867 31.8746 5.27784 31.3528 5.43432C31.2454 5.46645 31.2243 5.53035 31.2896 5.62603C31.7347 6.28199 32.1798 6.93744 32.6249 7.5934C32.657 7.64055 32.687 7.68925 32.7373 7.76594ZM29.6782 4.01307C29.6782 4.22758 29.6813 4.44209 29.6767 4.65608C29.6746 4.74157 29.6989 4.77681 29.7886 4.77163C29.9311 4.76282 30.0751 4.77059 30.2176 4.75867C30.6705 4.72033 30.9072 4.52551 30.9368 4.13225C30.9715 3.66592 30.8093 3.34779 30.3072 3.28095C30.1352 3.25815 29.9642 3.27162 29.7938 3.2597C29.6938 3.25297 29.6751 3.29597 29.6772 3.38354C29.6824 3.59287 29.6787 3.80271 29.6787 4.01256L29.6782 4.01307Z" fill="#A6320C"/>
<path d="M16.7134 12.0196C16.7134 10.3693 17.8544 9.14546 19.4844 9.02732C20.358 8.96359 21.1554 9.15427 21.8274 9.7465C21.9927 9.89209 22.1368 10.0579 22.2699 10.2335C22.3274 10.3092 22.3134 10.3367 22.2305 10.3755C21.8585 10.5486 21.4881 10.7258 21.1212 10.9097C21.0222 10.9589 20.9694 10.9512 20.8969 10.862C20.3575 10.2009 19.358 10.1216 18.7554 10.688C18.4906 10.9372 18.3606 11.2558 18.2974 11.6066C18.2155 12.0615 18.2606 12.504 18.4689 12.9175C18.93 13.8325 20.2072 13.9579 20.8782 13.1538C20.9668 13.0475 21.0274 13.0377 21.1471 13.0988C21.5041 13.2807 21.8678 13.4501 22.2316 13.619C22.3145 13.6574 22.3248 13.688 22.2699 13.7631C21.7502 14.4683 21.0539 14.8652 20.1849 14.9589C19.5305 15.0299 18.8953 14.9532 18.3036 14.6507C17.3766 14.1766 16.8683 13.4092 16.7373 12.3833C16.7207 12.2553 16.7093 12.1268 16.7139 12.0211L16.7134 12.0196Z" fill="#A6320C"/>
<path d="M32.9342 4.91466C32.9311 3.23279 34.1596 1.98874 35.8518 1.94677C36.5803 1.92864 37.2555 2.07734 37.8503 2.51724C38.0943 2.69807 38.2995 2.9162 38.4814 3.15869C38.5373 3.23382 38.5249 3.26491 38.4415 3.30325C38.0648 3.47838 37.6902 3.65766 37.3181 3.84211C37.2306 3.88564 37.185 3.88201 37.1207 3.80066C36.542 3.06854 35.6062 3.14004 35.101 3.50429C34.8772 3.66543 34.7202 3.87994 34.6223 4.13434C34.4301 4.63486 34.4254 5.14056 34.5959 5.64834C34.9762 6.78098 36.4415 6.88772 37.0731 6.10015C37.1762 5.97165 37.2534 5.96855 37.3896 6.03901C37.7244 6.21259 38.0648 6.37632 38.4099 6.52762C38.5466 6.58772 38.5254 6.63539 38.4534 6.72917C37.9684 7.36181 37.3368 7.74627 36.5461 7.86389C35.7285 7.98565 34.9518 7.87425 34.2477 7.42399C33.5026 6.94834 33.0855 6.25611 32.9601 5.38512C32.9508 5.3188 32.9389 5.253 32.9357 5.18616C32.9316 5.09549 32.9347 5.00481 32.9347 4.91414L32.9342 4.91466Z" fill="#A6320C"/>
<path d="M34.3474 11.9917C34.3474 11.0938 34.3495 10.1953 34.3448 9.2974C34.3443 9.17979 34.3749 9.14352 34.4956 9.14455C35.1888 9.15077 35.8826 9.14662 36.5759 9.15129C36.8003 9.15284 37.0251 9.17201 37.2453 9.21761C37.9189 9.35751 38.3422 9.77098 38.5288 10.4238C38.6671 10.9083 38.6609 11.3974 38.4956 11.8751C38.2811 12.4959 37.8298 12.8326 37.1863 12.9254C36.7769 12.9839 36.365 12.957 35.9541 12.958C35.835 12.958 35.7982 12.9953 35.7997 13.1135C35.8049 13.6435 35.7997 14.1741 35.8039 14.7042C35.8049 14.814 35.7764 14.8518 35.6604 14.8498C35.278 14.8425 34.8951 14.842 34.5127 14.8498C34.3842 14.8523 34.3427 14.8207 34.3438 14.6855C34.35 13.7876 34.3469 12.8891 34.3469 11.9912L34.3474 11.9917ZM35.8023 11.0409C35.8023 11.2269 35.8023 11.4135 35.8023 11.5995C35.8023 11.658 35.7987 11.7197 35.8842 11.7207C36.1609 11.7233 36.4391 11.7326 36.708 11.6487C36.9956 11.5586 37.1272 11.3575 37.122 11.0233C37.1174 10.701 36.978 10.5119 36.6883 10.428C36.436 10.3549 36.1769 10.3788 35.9194 10.3699C35.8194 10.3668 35.7982 10.4088 35.8008 10.4969C35.8049 10.6782 35.8023 10.8596 35.8023 11.0415V11.0409Z" fill="#A6320C"/>
<path d="M23.9264 4.91409C23.9264 4.01564 23.9285 3.11719 23.9238 2.21926C23.9233 2.10268 23.9518 2.06589 24.0731 2.06641C25.1399 2.07107 26.2067 2.07056 27.2736 2.06693C27.3814 2.06693 27.4249 2.08817 27.4223 2.20631C27.4145 2.53118 27.4145 2.85605 27.4223 3.18092C27.4249 3.29802 27.384 3.32237 27.2746 3.32134C26.7104 3.31616 26.1456 3.32237 25.5814 3.31616C25.4653 3.31512 25.4337 3.35191 25.4368 3.46227C25.4435 3.69595 25.4451 3.93067 25.4368 4.16435C25.4321 4.28922 25.4814 4.31461 25.5948 4.31357C26.1161 4.30839 26.6378 4.31409 27.1591 4.30891C27.2694 4.30787 27.3104 4.33585 27.3073 4.45191C27.3 4.76228 27.3005 5.07316 27.3073 5.38352C27.3093 5.49285 27.2808 5.53015 27.1643 5.52912C26.6378 5.52238 26.1119 5.52912 25.5855 5.52394C25.4767 5.5229 25.4326 5.54829 25.4363 5.66539C25.4446 5.89907 25.443 6.13378 25.4363 6.36746C25.4332 6.47627 25.4751 6.5058 25.5788 6.50529C26.1384 6.50166 26.6985 6.50684 27.258 6.50114C27.3793 6.5001 27.4259 6.52653 27.4223 6.65814C27.4124 6.98301 27.4166 7.30788 27.4207 7.63275C27.4218 7.72602 27.4031 7.76798 27.2959 7.76747C26.2145 7.76384 25.1337 7.76332 24.0523 7.76798C23.9326 7.76798 23.9244 7.71669 23.9244 7.62187C23.9269 6.71876 23.9259 5.81565 23.9259 4.91253L23.9264 4.91409Z" fill="#A6320C"/>
<path d="M39.5126 13.0133C39.7064 13.219 39.8981 13.4127 40.1328 13.5552C40.4219 13.7309 40.7271 13.8376 41.0727 13.7651C41.3442 13.7081 41.5411 13.5195 41.5748 13.2801C41.6157 12.9884 41.5022 12.776 41.2307 12.6371C41.0162 12.5272 40.7825 12.4754 40.553 12.4112C40.3551 12.3557 40.1613 12.2899 39.9727 12.2081C39.3846 11.9516 39.0815 11.5044 39.0867 10.864C39.0908 10.3039 39.2768 9.81532 39.7178 9.44693C40.0442 9.17387 40.4307 9.04123 40.8494 9.01221C41.4903 8.96817 42.0929 9.0977 42.6452 9.43915C42.7349 9.4946 42.7447 9.53967 42.7022 9.63138C42.5701 9.91688 42.4437 10.2055 42.323 10.4962C42.2815 10.5967 42.252 10.6158 42.1566 10.5428C41.854 10.3117 41.5183 10.1609 41.1266 10.1713C41.0002 10.1744 40.881 10.206 40.7717 10.2697C40.4654 10.4485 40.4515 10.8392 40.7452 11.0381C40.9064 11.1469 41.0934 11.1925 41.2779 11.2418C41.5406 11.3117 41.8033 11.3822 42.0551 11.4879C42.8152 11.8081 43.0411 12.307 43.0199 13.0304C42.9882 14.1159 42.3131 14.8278 41.225 14.9651C40.339 15.077 39.5608 14.8469 38.8976 14.2423C38.8286 14.1796 38.8157 14.1381 38.868 14.0552C39.0592 13.7526 39.2411 13.4443 39.4271 13.1381C39.4514 13.0982 39.4794 13.0604 39.5116 13.0133H39.5126Z" fill="#A6320C"/>
<path d="M38.3736 2.07187C38.9435 2.07187 39.4829 2.07239 40.0223 2.07135C40.0953 2.07135 40.1171 2.12835 40.1487 2.17291C40.5093 2.67861 40.871 3.18379 41.2259 3.69364C41.3036 3.80504 41.3347 3.7838 41.3933 3.68224C41.6886 3.17447 41.9902 2.67032 42.287 2.1641C42.3207 2.10659 42.3529 2.0698 42.429 2.07032C42.9648 2.07394 43.5005 2.07239 44.0368 2.07291C44.0497 2.07291 44.0627 2.07861 44.0938 2.08586C43.9788 2.28016 43.8679 2.46773 43.757 2.65478C42.7477 4.35996 41.7378 6.06515 40.7316 7.77189C40.6777 7.86308 40.6197 7.89314 40.5171 7.8921C40.0337 7.88692 39.5508 7.89055 39.0673 7.88899C39.0228 7.88899 38.9616 7.91386 38.9373 7.86567C38.9186 7.82889 38.9653 7.78951 38.9865 7.75324C39.472 6.93096 39.956 6.10764 40.4456 5.28743C40.5052 5.18743 40.5026 5.11955 40.4347 5.02266C39.7798 4.09312 39.1306 3.15996 38.4798 2.22731C38.4497 2.18431 38.4207 2.1413 38.373 2.07135L38.3736 2.07187Z" fill="#A6320C"/>
<path d="M6.49455 1.80883C6.80387 1.82696 7.0417 1.96997 7.19092 2.23992C7.3246 2.4824 7.30129 2.72437 7.14895 2.95598C7.00958 3.16738 6.86605 3.37515 6.67797 3.54873C6.45983 3.74977 6.21683 3.86324 5.92201 3.73526C5.62511 3.60676 5.49195 3.36116 5.45827 3.04873C5.43133 2.79432 5.51061 2.58292 5.6847 2.39691C5.84429 2.22593 5.99196 2.04458 6.18677 1.90935C6.28056 1.84406 6.379 1.8052 6.49455 1.80883Z" fill="#A6320C"/>
</svg>
