<svg width="22" height="19" viewBox="0 0 22 19" fill="none" xmlns="http://www.w3.org/2000/svg">
<path d="M1 9.81369L9.62143 14.2158C10.8279 14.8319 12.2691 14.7984 13.4449 14.1271L21 9.81369M1 13.1584L9.62143 17.5605C10.8279 18.1766 12.2691 18.1431 13.4449 17.4718L21 13.1584M2.51157 6.68994L10.0087 10.518C10.9739 11.0108 12.1268 10.9841 13.0675 10.447L19.6825 6.67034C20.2673 6.33643 20.266 5.50211 19.6801 5.17003L13.0592 1.4176C12.1229 0.8869 10.9781 0.860437 10.0176 1.34729L2.5139 5.15076C1.8799 5.47212 1.87855 6.36671 2.51157 6.68994Z" stroke="#11074C" stroke-width="1.5"/>
</svg>
