<svg width="23" height="23" viewBox="0 0 23 23" fill="none" xmlns="http://www.w3.org/2000/svg">
<path d="M11.5017 9.25736C12.7831 9.25736 13.8218 8.21862 13.8218 6.93727C13.8218 5.65592 12.7831 4.61719 11.5017 4.61719C10.2204 4.61719 9.18164 5.65592 9.18164 6.93727C9.18164 8.21862 10.2204 9.25736 11.5017 9.25736Z" stroke="#0F172A" stroke-width="1.5" stroke-miterlimit="10" stroke-linecap="round"/>
<path d="M6.70394 14.4102C6.70394 14.4102 0.336519 15.6155 1.68705 18.6548C2.99573 21.5993 11.028 21.5096 11.5252 21.5011C12.0232 21.5096 20.0547 21.5993 21.3633 18.6548C22.7139 15.6155 16.3465 14.4102 16.3465 14.4102" stroke="#0F172A" stroke-width="1.5" stroke-miterlimit="10" stroke-linecap="round"/>
<path d="M11.5638 1.5044C12.0089 1.49671 14.6963 1.54967 16.1271 3.87488C17.6904 6.41536 16.4005 9.65459 14.8381 11.6765C13.6627 13.1988 12.3788 15.4001 11.8158 16.3962C11.7048 16.5935 11.4212 16.5935 11.3093 16.3962C10.7463 15.4001 9.46328 13.1988 8.28786 11.6765C6.72548 9.65459 5.43559 6.4145 6.99883 3.87488C8.43137 1.54967 11.1179 1.49671 11.5638 1.5044Z" stroke="#0F172A" stroke-width="1.5" stroke-miterlimit="10" stroke-linecap="round"/>
</svg>
