<svg width="22" height="22" viewBox="0 0 22 22" fill="none" xmlns="http://www.w3.org/2000/svg">
<path d="M10.9999 14.1542C12.7425 14.1542 14.1551 12.7415 14.1551 10.999C14.1551 9.25638 12.7425 7.84375 10.9999 7.84375C9.25736 7.84375 7.84473 9.25638 7.84473 10.999C7.84473 12.7415 9.25736 14.1542 10.9999 14.1542Z" stroke="#0F172A" stroke-width="1.5" stroke-miterlimit="10" stroke-linecap="round"/>
<path d="M11.0005 17.9814C14.856 17.9814 17.9814 14.856 17.9814 11.0005C17.9814 7.14501 14.856 4.01953 11.0005 4.01953C7.14501 4.01953 4.01953 7.14501 4.01953 11.0005C4.01953 14.856 7.14501 17.9814 11.0005 17.9814Z" stroke="#0F172A" stroke-width="1.5" stroke-miterlimit="10" stroke-linecap="round"/>
<path d="M11 1V4.01905" stroke="#0F172A" stroke-width="1.5" stroke-miterlimit="10" stroke-linecap="round"/>
<path d="M20.9995 11H17.9805" stroke="#0F172A" stroke-width="1.5" stroke-miterlimit="10" stroke-linecap="round"/>
<path d="M4.01905 11H1" stroke="#0F172A" stroke-width="1.5" stroke-miterlimit="10" stroke-linecap="round"/>
<path d="M11 17.9805V20.9995" stroke="#0F172A" stroke-width="1.5" stroke-miterlimit="10" stroke-linecap="round"/>
</svg>
